<?xml version="1.0" encoding="UTF-8"?>
<svg version="1.1" xmlns="http://www.w3.org/2000/svg" width="483" height="484">
<path d="M0 0 C1.76605857 -0.00417574 3.53211445 -0.00965457 5.29816538 -0.01631981 C10.13845237 -0.03076151 14.97856891 -0.02653366 19.81886518 -0.019153 C25.04391218 -0.01442052 30.26892235 -0.02693186 35.49395752 -0.03717041 C45.72507568 -0.05436185 55.95613243 -0.05519773 66.18726128 -0.04995751 C74.50313864 -0.0459154 82.81899785 -0.04735985 91.13487434 -0.05270576 C92.31862232 -0.05345419 93.50237029 -0.05420261 94.72198941 -0.05497371 C97.1267943 -0.05650519 99.53159918 -0.05804354 101.93640406 -0.05958868 C124.48521367 -0.07331485 147.03398859 -0.06787509 169.58279742 -0.05640347 C190.21019001 -0.04646986 210.83749293 -0.05941379 231.4648717 -0.08333766 C252.64842671 -0.10772138 273.83193994 -0.11733838 295.01550871 -0.11068493 C306.90716476 -0.10719125 318.79875182 -0.10943474 330.69039726 -0.12693596 C340.81288518 -0.14164877 350.93525551 -0.14230531 361.0577411 -0.12486505 C366.22152062 -0.11634537 371.38509001 -0.11422929 376.54885864 -0.1295166 C381.2782247 -0.14334448 386.00720024 -0.13862487 390.7365436 -0.11927737 C392.44505378 -0.11551125 394.1535951 -0.11845693 395.86207759 -0.12888902 C408.16217556 -0.19863842 417.89091158 1.22829018 427.68959045 9.25486755 C434.40692662 16.25422929 436.85763459 24.09898697 436.87068653 33.53617287 C436.87303876 34.26041622 436.87539099 34.98465957 436.8778145 35.73084968 C436.88449953 38.1705621 436.88404643 40.61022121 436.88363647 43.04994202 C436.88693541 44.81168269 436.89066104 46.57342261 436.89477795 48.33516157 C436.9048027 53.18669276 436.90851551 58.03821159 436.91116726 62.88975167 C436.91506889 68.11828402 436.92464731 73.34680655 436.93338013 78.57533264 C436.95314822 91.20711789 436.96321104 103.83890395 436.97210792 116.4707008 C436.97649013 122.41770198 436.9818571 128.36470226 436.98709679 134.31170273 C437.00410917 154.07809832 437.01860379 173.84449336 437.02584553 193.61089516 C437.02775545 198.74107997 437.02967578 203.87126479 437.03163147 209.00144958 C437.03211521 210.2765476 437.03259895 211.55164561 437.03309735 212.86538295 C437.0413993 233.52541927 437.06673898 254.18539771 437.09921215 274.84540875 C437.13227204 296.05139755 437.15029331 317.25735693 437.15348977 338.46337163 C437.15565582 350.37187944 437.16441847 362.28030285 437.18995094 374.18878555 C437.21164327 384.32968171 437.21971555 394.47047298 437.20998416 404.61138971 C437.20543528 409.78526917 437.20736003 414.95893213 437.22674561 420.13278198 C437.24434777 424.87158562 437.2434034 429.61001435 437.22784831 434.3488218 C437.22546778 436.06085185 437.22981888 437.77290765 437.24167696 439.48489828 C437.32243515 451.9167822 435.8577045 461.53763435 427.72865295 471.41111755 C421.11813701 477.96978632 412.47578608 480.63499254 403.34187698 480.64494896 C402.25205043 480.65020807 402.25205043 480.65020807 401.14020717 480.65557343 C398.70462641 480.66488036 396.26928512 480.65996597 393.83369446 480.65510559 C392.07022652 480.65884221 390.30676023 480.66344378 388.54329658 480.66883624 C383.69626624 480.68108026 378.84930486 480.68080411 374.00226259 480.67844748 C368.77512324 480.67803967 363.5480061 480.68907509 358.32087708 480.69856262 C348.07933461 480.71518141 337.83781516 480.72067257 327.59626034 480.72178738 C319.27173299 480.72273746 310.94721324 480.72684575 302.62268829 480.73318863 C279.0243278 480.75080362 255.42598551 480.76002712 231.82761839 480.75852768 C229.91899671 480.75840781 229.91899671 480.75840781 227.97181702 480.75828552 C226.0608665 480.75816288 226.0608665 480.75816288 224.11131093 480.75803776 C203.46433118 480.75722484 182.81742438 480.77636336 162.17046574 480.80456226 C140.97344968 480.83328409 119.77646921 480.84710293 98.5794332 480.8453747 C86.67766728 480.84471055 74.77597783 480.850214 62.87422943 480.8717308 C52.74069547 480.88993338 42.60727263 480.89429751 32.4737294 480.88071196 C27.30389078 480.87417762 22.13426542 480.87408203 16.96444702 480.89141846 C12.22941705 480.90713348 7.4947697 480.90430147 2.75974914 480.88685019 C1.04912762 480.88377685 -0.66152236 480.88742528 -2.37211034 480.89857034 C-15.18916329 480.97653012 -25.52273045 479.43271243 -35.26353455 470.38768005 C-44.07213895 460.84502528 -43.69800039 449.2967066 -43.6512146 437.12414551 C-43.65539034 435.35808694 -43.66086917 433.59203105 -43.66753441 431.82598013 C-43.68197611 426.98569313 -43.67774826 422.1455766 -43.6703676 417.30528033 C-43.66563512 412.08023333 -43.67814646 406.85522316 -43.68838501 401.63018799 C-43.70557645 391.39906983 -43.70641233 381.16801308 -43.70117211 370.93688423 C-43.69713 362.62100687 -43.69857445 354.30514766 -43.70392036 345.98927116 C-43.70466879 344.80552319 -43.70541721 343.62177522 -43.70618831 342.4021561 C-43.70771979 339.99735121 -43.70925814 337.59254633 -43.71080328 335.18774145 C-43.72452945 312.63893183 -43.71908969 290.09015692 -43.70761807 267.54134809 C-43.69768446 246.91395549 -43.71062839 226.28665258 -43.73455226 205.65927381 C-43.75893598 184.4757188 -43.76855298 163.29220557 -43.76189953 142.1086368 C-43.75840585 130.21698075 -43.76064934 118.32539369 -43.77815056 106.43374825 C-43.79286337 96.31126033 -43.79351991 86.18888999 -43.77607965 76.06640441 C-43.76755997 70.90262489 -43.76544389 65.73905549 -43.7807312 60.57528687 C-43.79455908 55.84592081 -43.78983946 51.11694526 -43.77049197 46.3876019 C-43.76672585 44.67909172 -43.76967153 42.9705504 -43.78010362 41.26206792 C-43.85273919 28.45300343 -42.30245071 18.12189746 -33.26353455 8.38768005 C-23.72087977 -0.42092435 -12.1725611 -0.04678579 0 0 Z " fill="#0976B3" transform="translate(44.26353454589844,1.6123199462890625)"/>
<path d="M0 0 C0.64241774 -0.00226556 1.28483548 -0.00453111 1.94672042 -0.00686532 C4.09135524 -0.01317646 6.2359264 -0.01237781 8.38056946 -0.0115509 C9.92171307 -0.01454428 11.46285593 -0.01794722 13.0039978 -0.02172852 C17.18606198 -0.03055655 21.36810569 -0.03290618 25.55017829 -0.0335443 C28.16594959 -0.03425571 30.78171572 -0.0363918 33.39748573 -0.03904152 C42.53182428 -0.04829237 51.66614825 -0.0523769 60.80049133 -0.05158997 C69.29996435 -0.05098988 77.79937376 -0.06152884 86.29883069 -0.07733363 C93.60688597 -0.09043615 100.91492054 -0.09577269 108.22298747 -0.09513456 C112.58278026 -0.09488028 116.94251656 -0.0976922 121.30229759 -0.10831261 C125.40713027 -0.11803881 129.51185299 -0.11804195 133.61668968 -0.11079597 C135.11701113 -0.10975559 136.61733958 -0.11208028 138.11764908 -0.11815643 C153.9205475 -0.17797279 166.64987357 1.93557467 178.62007141 13.09465027 C190.29543298 25.97951018 190.92502158 38.63725798 190.46772766 55.13371277 C193.7154339 53.263989 196.96264927 51.39341537 200.20942688 49.52207947 C201.38155699 48.84654225 202.55375752 48.17112719 203.72602844 47.49583435 C210.22571694 43.75101176 216.71783749 39.99452461 223.18647766 36.19621277 C224.24415344 35.57569031 225.30182922 34.95516785 226.39155579 34.31584167 C228.38666699 33.14379301 230.3802538 31.9691441 232.37202454 30.79142761 C251.3333482 19.65747142 251.3333482 19.65747142 263.46772766 21.13371277 C269.60965683 23.21758159 273.18745824 27.08713556 276.58580017 32.51956177 C279.28862666 38.10812873 279.01232463 43.67428655 278.9535675 49.77262878 C278.9573642 51.02076355 278.96116089 52.26889832 278.96507263 53.55485535 C278.9711883 56.95800216 278.95953291 60.36016639 278.93916655 63.76319623 C278.92150883 67.33533891 278.9251223 70.90746734 278.92588806 74.47964478 C278.92401907 80.47567027 278.90670905 86.47149247 278.87934875 92.467453 C278.84788789 99.38736218 278.83735332 106.30704908 278.83881986 113.22702461 C278.84017356 120.61365 278.82627775 128.00019039 278.80792665 135.38679004 C278.80367613 137.50714682 278.80224596 139.62748977 278.80144882 141.74785042 C278.79905601 145.70670975 278.77959049 149.66538669 278.758255 153.62419128 C278.75916138 154.79270126 278.76006775 155.96121124 278.76100159 157.16513062 C278.69950116 164.9769919 278.22223203 171.61828086 273.46772766 178.13371277 C268.45644794 182.8741125 263.15990428 184.43138511 256.34272766 184.69621277 C241.67514968 184.20711355 227.15581334 170.30305454 215.40522766 162.32121277 C213.41393057 160.97255198 211.42239596 159.62424183 209.43061829 158.27629089 C205.07826842 155.33012757 200.72819497 152.38063866 196.38018799 149.42807007 C194.74739111 148.3229896 193.10820265 147.22736276 191.46772766 146.13371277 C191.45314514 146.81361267 191.43856262 147.49351257 191.42353821 148.1940155 C191.34836346 151.32027558 191.25193534 154.44554759 191.15522766 157.57121277 C191.12138977 159.17512878 191.12138977 159.17512878 191.08686829 160.81144714 C190.67465045 173.06555925 186.96743986 184.04255656 178.58491516 193.18058777 C168.96569074 202.05441104 157.79263605 206.24048767 144.81520081 206.27415466 C143.85029256 206.27861135 143.85029256 206.27861135 142.86589122 206.28315806 C140.72436752 206.29178456 138.58290012 206.29334814 136.44136047 206.29484558 C134.90006899 206.29947803 133.35877865 206.30450327 131.81748962 206.30989075 C127.63962119 206.32297529 123.4617688 206.32945194 119.28388309 206.33390141 C116.67028401 206.33683841 114.05668925 206.34094438 111.44309235 206.34540558 C103.25571821 206.35906989 95.06835403 206.36874186 86.88096929 206.37260747 C77.44834182 206.37708626 68.01585941 206.39463029 58.58327603 206.42360806 C51.27944688 206.44526287 43.97565842 206.45531377 36.67179751 206.45664859 C32.315339 206.45769386 27.95901702 206.46354235 23.60259247 206.4814682 C19.50181352 206.49801485 15.40127281 206.50007262 11.30047226 206.49132919 C9.80175765 206.49056234 8.30302988 206.49485472 6.80434799 206.50478745 C-8.46446719 206.59998893 -20.39753975 203.22679731 -31.93852234 192.82902527 C-39.43117168 184.85890318 -43.62422815 175.37444143 -43.68617249 164.45010376 C-43.69477295 163.31624741 -43.70337341 162.18239105 -43.7122345 161.01417542 C-43.71649445 159.77930389 -43.72075439 158.54443237 -43.72514343 157.2721405 C-43.73332092 155.96420029 -43.74149841 154.65626007 -43.74992371 153.3086853 C-43.77605959 148.97824644 -43.79144572 144.64779835 -43.80570984 140.31730652 C-43.81107352 138.82148293 -43.81645103 137.32565938 -43.82184219 135.82983589 C-43.84346106 129.60263498 -43.86219359 123.37543657 -43.87346458 117.14820766 C-43.88967791 108.25153906 -43.92280293 99.35530889 -43.97986543 90.4588055 C-44.01869878 84.18850545 -44.03811319 77.918322 -44.04338515 71.64790493 C-44.04702117 67.91050093 -44.05885326 64.17356543 -44.09148788 60.43629265 C-44.12180498 56.9140255 -44.12779784 53.39250453 -44.11610413 49.87013435 C-44.11578201 47.98066793 -44.14009082 46.09124591 -44.16548157 44.20195007 C-44.07281005 31.35039574 -39.37400587 21.35484905 -30.53227234 12.13371277 C-22.03781025 4.21367127 -11.53883086 0.01685094 0 0 Z " fill="#FCFDFE" transform="translate(123.53227233886719,138.8662872314453)"/>
<path d="M0 0 C0.96680165 -0.01147664 0.96680165 -0.01147664 1.95313466 -0.02318513 C4.10508827 -0.04376369 6.25596642 -0.03587811 8.4079895 -0.02792358 C9.95400985 -0.0366213 11.50002157 -0.04698877 13.04602051 -0.05889893 C17.24037281 -0.08566663 21.43436455 -0.08683772 25.62878561 -0.08177233 C29.13271898 -0.07963179 32.63657956 -0.08940257 36.14049733 -0.09898317 C44.40875329 -0.12116976 52.67682755 -0.12205083 60.94509888 -0.10995483 C69.46872029 -0.09787677 77.99168128 -0.12249323 86.51519001 -0.16509497 C93.83852462 -0.20034922 101.16164925 -0.2123262 108.48506558 -0.20581949 C112.85665984 -0.20219651 117.22778311 -0.20743738 121.59930038 -0.23524857 C125.71182305 -0.26043315 129.82331815 -0.25649379 133.93582535 -0.23042679 C135.4422465 -0.22570167 136.94874027 -0.23114227 138.45507812 -0.24767303 C151.23702587 -0.37779285 151.23702587 -0.37779285 155.77374268 3.31793213 C159.45016645 7.10405089 160.69579578 10.49675629 160.71496582 15.7454834 C160.72776077 17.33100006 160.72776077 17.33100006 160.74081421 18.94854736 C160.73945465 20.68012589 160.73945465 20.68012589 160.73806763 22.44668579 C160.74478485 23.66658203 160.75150208 24.88647827 160.75842285 26.14334106 C160.77416712 29.48645181 160.78077795 32.82931412 160.78205442 36.17244482 C160.78347696 38.26237519 160.7877485 40.3522796 160.79304886 42.44220352 C160.81154718 49.73700867 160.81971974 57.03174077 160.81814575 64.3265686 C160.81694445 71.12039069 160.83804475 77.91389503 160.86963308 84.70763671 C160.89580742 90.54556992 160.90651257 96.38339942 160.90523493 102.22139084 C160.90472562 105.70590331 160.91039101 109.19013336 160.93159103 112.67458725 C160.95459911 116.56228739 160.94544536 120.44955368 160.93338013 124.33731079 C160.94461914 125.48764801 160.95585815 126.63798523 160.96743774 127.82318115 C160.91982605 133.85426228 160.77978247 137.92333708 156.44754028 142.52139282 C152.10149084 145.89872283 149.30349415 147.02306521 143.81278992 147.04278564 C142.49363586 147.05695526 141.17448181 147.07112488 139.81535339 147.08572388 C138.36535506 147.08113684 136.91535805 147.07611753 135.46536255 147.07070923 C133.92904674 147.07940946 132.39273961 147.08977776 130.85644531 147.10168457 C126.69314209 147.12842268 122.53020244 147.12962686 118.36683011 147.12455797 C114.88769969 147.1224158 111.40864242 147.1321922 107.9295277 147.14176881 C99.72022538 147.16394435 91.5111061 147.16484216 83.30178833 147.15274048 C74.84006037 147.14065832 66.3789973 147.16529179 57.91738278 147.20788062 C50.6449827 147.24313446 43.37279406 147.25511206 36.1003117 147.24860513 C31.76003014 147.24498269 27.42022299 147.25021803 23.080019 147.27803421 C18.99784921 147.30321882 14.91671461 147.29927949 10.83456039 147.27321243 C9.33942627 147.26848762 7.84421897 147.27392683 6.34916878 147.29045868 C-6.33558153 147.42057322 -6.33558153 147.42057322 -10.87193298 143.72485352 C-14.55481757 139.93959912 -15.80070099 136.54992414 -15.81988525 131.29730225 C-15.82841522 130.24029114 -15.83694519 129.18328003 -15.84573364 128.09423828 C-15.84482727 126.9398526 -15.8439209 125.78546692 -15.84298706 124.59609985 C-15.84970428 123.37620361 -15.85642151 122.15630737 -15.86334229 120.89944458 C-15.87908655 117.55633384 -15.88569738 114.21347152 -15.88697386 110.87034082 C-15.8883964 108.78041045 -15.89266793 106.69050604 -15.89796829 104.60058212 C-15.91646661 97.30577697 -15.92463917 90.01104487 -15.92306519 82.71621704 C-15.92186388 75.92239496 -15.94296418 69.12889062 -15.97455251 62.33514893 C-16.00072686 56.49721572 -16.011432 50.65938622 -16.01015437 44.8213948 C-16.00964506 41.33688233 -16.01531045 37.85265228 -16.03651047 34.36819839 C-16.05951855 30.48049825 -16.05036479 26.59323197 -16.03829956 22.70547485 C-16.04953857 21.55513763 -16.06077759 20.40480042 -16.07235718 19.21960449 C-16.02452482 13.16057136 -15.8335433 9.18958928 -11.55245972 4.52139282 C-7.67899709 0.83901118 -5.32007304 0.01896992 0 0 Z " fill="#0978B5" transform="translate(124.55245971679688,168.47860717773438)"/>
<path d="M0 0 C0 30.36 0 60.72 0 92 C-3.68332623 90.52666951 -6.1726621 89.37722941 -9.34033203 87.22192383 C-10.1653421 86.66406693 -10.99035217 86.10621002 -11.84036255 85.53144836 C-13.16075027 84.62836189 -13.16075027 84.62836189 -14.5078125 83.70703125 C-15.42907928 83.08277756 -16.35034607 82.45852386 -17.29953003 81.81535339 C-20.24439915 79.81884646 -23.18488844 77.81600492 -26.125 75.8125 C-29.04441536 73.82794546 -31.9647589 71.8447763 -34.88619995 69.86320496 C-36.70079736 68.63187734 -38.51414153 67.39869987 -40.32595825 66.1632843 C-41.16988129 65.5896666 -42.01380432 65.01604889 -42.88330078 64.42504883 C-43.70922226 63.86142136 -44.53514374 63.29779388 -45.38609314 62.71708679 C-47.24430317 61.49642054 -49.13695818 60.32750215 -51.05055237 59.19563293 C-52.0492485 58.60143051 -53.04794464 58.00722809 -54.0769043 57.39501953 C-54.99239548 56.8693338 -55.90788666 56.34364807 -56.85112 55.80203247 C-59 54 -59 54 -59.85151672 51.3243103 C-60.09392533 48.4924397 -59.96390268 45.890312 -59.6875 43.0625 C-59.63787109 42.09248047 -59.58824219 41.12246094 -59.53710938 40.12304688 C-59.4080249 37.74085155 -59.22815515 35.37440902 -59 33 C-58.41847168 32.67427002 -57.83694336 32.34854004 -57.23779297 32.01293945 C-46.19979477 25.82228756 -35.19910239 19.57891584 -24.3125 13.125 C-23.39936035 12.58375488 -22.4862207 12.04250977 -21.54541016 11.48486328 C-18.33271544 9.57818986 -15.12129826 7.66942005 -11.91357422 5.75439453 C-10.19445336 4.7286183 -8.47238214 3.70779073 -6.75 2.6875 C-5.85796875 2.15511719 -4.9659375 1.62273437 -4.046875 1.07421875 C-2 0 -2 0 0 0 Z " fill="#0674B0" transform="translate(373,195)"/>
</svg>
